<?xml version="1.0" encoding="iso-8859-1"?>
<!-- Generator: Adobe Illustrator 19.0.0, SVG Export Plug-In . SVG Version: 6.00 Build 0)  -->
<svg version="1.1" id="Layer_1" xmlns="http://www.w3.org/2000/svg" xmlns:xlink="http://www.w3.org/1999/xlink" x="0px" y="0px"
	 viewBox="0 0 503.893 503.893" style="enable-background:new 0 0 503.893 503.893;" xml:space="preserve">
<g transform="translate(31 31)">
	<path style="fill:#AE938D;" d="M460.345,306.493c0,25.6,8.533,34.133,8.533,59.733c0,22.187-8.533,22.187-8.533,42.667
		c0,25.6-28.16,39.253-51.2,51.2c-17.92,9.387-46.933,8.533-68.267,8.533c-15.36,0-29.013-11.947-42.667-17.067
		c-17.92-5.973-36.693-5.973-51.2-17.067c-3.413-2.56-7.68-5.973-13.653-10.24c8.533-26.453,4.267-40.96,4.267-40.96
		c-5.12-12.8-8.533-27.307-8.533-42.667c0-59.733,34.987-65.707,58.88-98.133c9.387-12.8,33.28-12.8,52.053-12.8
		c15.36,0,25.6,17.067,51.2,17.067c0,0,26.453-8.533,44.373,4.267l0.853-0.853C447.545,262.973,460.345,275.773,460.345,306.493"/>
	<path style="fill:#AAB1BA;" d="M366.478,297.96c9.387,0,17.067,7.68,17.067,17.067s-7.68,17.067-17.067,17.067
		s-17.067-7.68-17.067-17.067S357.092,297.96,366.478,297.96"/>
</g>
<path style="fill:#51565F;" d="M379.558,503.893c-1.707,0-2.56,0-4.267,0h-3.413c-11.093,0-20.48-5.12-29.867-10.24
	c-5.12-2.56-10.24-5.12-14.507-6.827c-5.973-1.707-11.947-3.413-17.92-4.267c-11.947-2.56-23.893-5.12-34.133-12.8L2.385,264.96
	c-1.707-1.707-2.56-4.267-0.853-5.973c1.707-1.707,4.267-2.56,5.973-0.853l273.067,204.8c9.387,6.827,19.627,9.387,30.72,11.947
	c5.973,1.707,12.8,2.56,18.773,5.12c5.12,1.707,11.093,5.12,16.213,7.68c8.533,4.267,17.067,9.387,25.6,9.387h3.413
	c19.627,0,46.933,0,62.293-7.68l1.707-0.853c22.187-11.093,46.933-23.893,46.933-46.933c0-11.093,2.56-17.067,4.267-22.187
	s4.267-10.24,4.267-20.48c0-11.947-1.707-20.48-4.267-29.013c-2.56-8.533-4.267-17.92-4.267-30.72
	c0-27.307-10.24-40.107-19.627-51.2c-1.707-2.56-3.413-4.267-5.12-6.827L256.678,8.107c-1.707-1.707-0.853-4.267,0.853-5.973
	c1.707-1.707,4.267-0.853,5.973,0.853l204.8,273.067c1.707,1.707,3.413,4.267,5.12,5.973c9.387,11.947,21.333,25.6,21.333,56.32
	c0,11.947,1.707,20.48,4.267,29.013c2.56,8.533,4.267,17.92,4.267,30.72c0,11.947-2.56,17.92-4.267,23.893
	c-1.707,5.12-4.267,9.387-4.267,18.773c0,27.307-29.013,42.667-52.053,53.76l-1.707,0.853
	C425.638,503.04,400.892,503.893,379.558,503.893z M380.412,469.76c-5.973,0-11.947-0.853-17.92-1.707
	c-2.56-0.853-3.413-2.56-3.413-5.12s2.56-3.413,5.12-3.413c10.24,1.707,22.187,1.707,32.427,0c2.56,0,4.267,0.853,5.12,3.413
	c0,2.56-0.853,4.267-3.413,5.12C392.358,469.76,386.385,469.76,380.412,469.76z M423.078,454.4c-1.707,0-2.56-0.853-3.413-1.707
	c-1.707-1.707-0.853-4.267,0.853-5.973c15.36-10.24,27.307-24.747,34.133-41.813c0.853-2.56,3.413-3.413,5.12-2.56
	c2.56,0.853,3.413,3.413,2.56,5.12c-7.68,18.773-20.48,34.987-37.547,46.08C424.785,454.4,423.932,454.4,423.078,454.4z
	 M269.478,418.56c-1.707,0-3.413-0.853-4.267-2.56c-5.973-13.653-8.533-29.013-8.533-44.373c0-43.52,18.773-60.587,37.547-77.653
	c7.68-6.827,15.36-13.653,22.187-23.04c11.093-14.507,36.693-14.507,55.467-14.507c7.68,0,13.653,3.413,20.48,7.68
	c8.533,5.12,17.067,9.387,29.867,9.387c2.56,0,4.267,1.707,4.267,4.267c0,2.56-1.707,4.267-4.267,4.267
	c-15.36,0-26.453-5.973-34.133-11.093c-5.973-3.413-11.093-5.973-16.213-5.973c-17.067,0-40.96,0-48.64,11.093
	c-6.827,10.24-15.36,17.067-23.04,24.747c-18.773,16.213-34.133,30.72-34.133,70.827c0,14.507,2.56,28.16,8.533,40.96
	c0.853,2.56,0,4.267-2.56,5.973C270.332,418.56,270.332,418.56,269.478,418.56z M367.612,418.56c-5.12,0-8.533-3.413-8.533-8.533
	s3.413-8.533,8.533-8.533s8.533,3.413,8.533,8.533S372.732,418.56,367.612,418.56z M316.412,401.493
	c-5.12,0-8.533-3.413-8.533-8.533s3.413-8.533,8.533-8.533s8.533,3.413,8.533,8.533S320.678,401.493,316.412,401.493z
	 M397.478,367.36c-11.947,0-21.333-9.387-21.333-21.333c0-11.947,9.387-21.333,21.333-21.333c11.947,0,21.333,9.387,21.333,21.333
	C418.812,357.973,409.425,367.36,397.478,367.36z M397.478,333.227c-6.827,0-12.8,5.973-12.8,12.8s5.973,12.8,12.8,12.8
	s12.8-5.973,12.8-12.8S404.305,333.227,397.478,333.227z M226.812,333.227c-0.853,0-1.707,0-2.56-0.853l-31.573-26.453
	c-0.853-0.853-1.707-1.707-1.707-3.413c0-0.853,0-1.707,0.853-2.56c1.707-1.707,4.267-1.707,5.973-0.853l31.573,26.453
	c0.853,0.853,1.707,1.707,1.707,3.413c0,0.853,0,1.707-0.853,2.56C229.372,332.373,227.665,333.227,226.812,333.227z
	 M329.212,331.52c-0.853,0-2.56,0-3.413-0.853c-1.707-1.707-1.707-4.267,0-5.973l9.387-9.387c0-0.853,0-2.56,0.853-3.413
	c4.267-4.267,9.387-8.533,13.653-11.947c0,0,0.853,0,0.853-0.853c0.853,0,0.853,0,1.707,0c0.853,0,0.853,0,1.707,0.853l0.853,0.853
	l0.853,0.853c0,0.853,0,1.707,0,1.707c0,0.853,0,0.853-0.853,1.707l-0.853,0.853l-23.893,23.893
	C330.918,331.52,330.065,331.52,329.212,331.52z M169.638,284.587c-0.853,0-1.707,0-2.56-0.853l-31.573-27.307
	c-0.853-0.853-1.707-1.707-1.707-3.413c0-0.853,0-1.707,0.853-2.56c1.707-1.707,4.267-1.707,5.973,0l31.573,27.307
	c0.853,0.853,1.707,1.707,1.707,3.413c0,0.853,0,1.707-0.853,2.56C172.198,283.733,170.492,284.587,169.638,284.587z
	 M260.945,264.96c-0.853,0-2.56,0-3.413-0.853l-34.133-34.133c-0.853-0.853-0.853-1.707-0.853-3.413s0-2.56,0.853-3.413
	c1.707-1.707,4.267-1.707,5.973,0l34.133,34.133c0.853,0.853,0.853,1.707,0.853,3.413c0,1.707,0,2.56-0.853,3.413
	S261.798,264.96,260.945,264.96z M108.198,231.68c-0.853,0-1.707,0-2.56-0.853l-35.84-30.72c-0.853-0.853-1.707-1.707-1.707-3.413
	c0-0.853,0-1.707,0.853-2.56c1.707-1.707,4.267-1.707,5.973-0.853l35.84,30.72c0.853,0.853,1.707,1.707,1.707,3.413
	c0,0.853,0,1.707-0.853,2.56C110.758,231.68,109.052,231.68,108.198,231.68z M329.212,230.827c-0.853,0-2.56-0.853-3.413-1.707
	l-26.453-30.72c-0.853-0.853-0.853-1.707-0.853-2.56c0-0.853,0.853-2.56,1.707-3.413c1.707-1.707,4.267-1.707,5.973,0.853
	L332.625,224c0.853,0.853,0.853,1.707,0.853,2.56c0,0.853-0.853,2.56-1.707,3.413C330.918,230.827,330.065,230.827,329.212,230.827z
	 M201.212,205.227c-0.853,0-2.56,0-3.413-0.853l-34.133-34.133c-0.853-0.853-0.853-1.707-0.853-3.413s0-2.56,0.853-3.413
	c1.707-1.707,4.267-1.707,5.973,0l34.133,34.133c0.853,0.853,0.853,1.707,0.853,3.413s0,2.56-0.853,3.413
	C202.918,205.227,202.065,205.227,201.212,205.227z M42.492,177.92c-0.853,0-1.707,0-2.56-0.853L2.385,144.64
	c-0.853-0.853-1.707-1.707-1.707-3.413c0-0.853,0-1.707,0.853-2.56c1.707-1.707,4.267-1.707,5.973-0.853l37.547,32.427
	c0.853,0.853,1.707,1.707,1.707,3.413c0,0.853,0,1.707-0.853,2.56C45.052,177.067,44.198,177.92,42.492,177.92z M281.425,173.653
	c-0.853,0-2.56-0.853-3.413-1.707l-27.307-33.28c-0.853-0.853-0.853-1.707-0.853-2.56c0-0.853,0.853-2.56,1.707-3.413
	c1.707-1.707,4.267-0.853,5.973,0.853l27.307,33.28c0.853,0.853,0.853,1.707,0.853,2.56c0,0.853-0.853,2.56-1.707,3.413
	C283.132,173.653,282.278,173.653,281.425,173.653z M141.478,145.493c-0.853,0-2.56,0-3.413-0.853l-34.133-34.133
	c-0.853-0.853-0.853-1.707-0.853-3.413c0-1.707,0-2.56,0.853-3.413c1.707-1.707,4.267-1.707,5.973,0l34.133,34.133
	c0.853,0.853,0.853,1.707,0.853,3.413s0,2.56-0.853,3.413C143.185,145.493,142.332,145.493,141.478,145.493z M228.518,112.213
	c-0.853,0-2.56-0.853-3.413-1.707l-30.72-35.84c-0.853-0.853-0.853-1.707-0.853-2.56c0-0.853,0.853-2.56,1.707-3.413
	c1.707-1.707,4.267-0.853,5.973,0.853l30.72,35.84c0.853,0.853,0.853,1.707,0.853,2.56c0,0.853-0.853,2.56-1.707,3.413
	C230.225,111.36,229.372,112.213,228.518,112.213z M81.745,85.76c-0.853,0-2.56,0-3.413-0.853l-25.6-25.6
	c-0.853-0.853-0.853-1.707-0.853-3.413c0-1.707,0-2.56,0.853-3.413c1.707-1.707,4.267-1.707,5.973,0l25.6,25.6
	c0.853,0.853,0.853,1.707,0.853,3.413s0,2.56-0.853,3.413S82.598,85.76,81.745,85.76z M173.905,47.36
	c-0.853,0-2.56-0.853-3.413-1.707l-32.427-38.4c-0.853-0.853-0.853-1.707-0.853-2.56c0-0.853,0.853-2.56,1.707-3.413
	c1.707-1.707,4.267-1.707,5.973,0.853l32.427,38.4c0.853,0.853,0.853,1.707,0.853,2.56c0,0.853-0.853,2.56-1.707,3.413
	C175.612,46.507,174.758,47.36,173.905,47.36z M30.545,34.56c-0.853,0-2.56,0-3.413-0.853l-25.6-25.6
	C0.678,7.253,0.678,6.4,0.678,4.693s0-2.56,0.853-3.413c1.707-1.707,4.267-1.707,5.973,0l25.6,25.6
	c0.853,0.853,0.853,1.707,0.853,3.413s0,2.56-0.853,3.413S31.398,34.56,30.545,34.56z"/>
<g>
</g>
<g>
</g>
<g>
</g>
<g>
</g>
<g>
</g>
<g>
</g>
<g>
</g>
<g>
</g>
<g>
</g>
<g>
</g>
<g>
</g>
<g>
</g>
<g>
</g>
<g>
</g>
<g>
</g>
</svg>
