<?xml version="1.0" encoding="iso-8859-1"?>
<!-- Generator: Adobe Illustrator 19.0.0, SVG Export Plug-In . SVG Version: 6.00 Build 0)  -->
<svg version="1.1" id="Layer_1" xmlns="http://www.w3.org/2000/svg" xmlns:xlink="http://www.w3.org/1999/xlink" x="0px" y="0px"
	 viewBox="0 0 511.999 511.999" fill="#fff" style="enable-background:new 0 0 511.999 511.999;" xml:space="preserve">
<g>
	<g>
		<path d="M503.051,63.626c-9.49-9.491-24.16-11.366-43.598-5.579c-2.679,0.797-5.476,1.747-8.387,2.843
			c9.091-24.197,8.071-41.178-2.786-52.036c-19.1-19.101-54.609-2.165-66.278,3.402c-23.443,11.182-52.927,30.26-85.513,55.297
			c-11.051-1.877-22.4-2.87-33.978-2.87c-111.499,0-202.208,90.711-202.208,202.208c0,11.968,1.052,23.694,3.056,35.097
			c-23.578,31.196-41.477,59.366-51.921,81.758c-5.279,11.318-21.344,45.762-2.577,64.53c5.949,5.949,13.735,8.948,23.538,8.948
			c8.089,0,17.555-2.046,28.495-6.156c-1.096,2.908-2.044,5.702-2.841,8.379c-5.788,19.44-3.912,34.109,5.579,43.599
			c5.949,5.95,13.735,8.949,23.538,8.949c20.082,0,48.633-12.582,87.22-38.16c7.308-4.844,14.836-10.078,22.539-15.658
			c20.575,7.073,42.636,10.923,65.581,10.923c111.499,0,202.208-90.711,202.208-202.208c0-22.536-3.709-44.223-10.544-64.483
			c7.101-9.625,13.676-18.989,19.664-28.022C511.905,116.956,521.187,81.762,503.051,63.626z M389.845,43.346
			c22.659-11.626,32.733-12.201,35.886-11.956c0.334,4.663-1.146,24.688-37.214,77.474c-16.081-12.849-34.156-23.296-53.682-30.8
			C355.361,63.268,374.081,51.433,389.845,43.346z M262.511,96.025c40.793,0,78.286,14.377,107.698,38.321
			c-29.449,39.196-67.805,82.829-110.415,125.441c-44.414,44.414-89.936,84.203-130.39,114.104
			c-23.605-29.305-37.758-66.528-37.758-106.999C91.646,172.675,168.296,96.025,262.511,96.025z M31.303,425.718
			c-0.895-7.014,5.671-32.783,42.812-85.373c7.325,18.722,17.36,36.093,29.627,51.629C54.43,424.904,35.63,426.054,31.303,425.718z
			 M86.091,480.491c-0.568-5.056,2.527-21.357,22.282-54.167c3.652-2.293,7.396-4.71,11.245-7.261
			c1.871-1.24,3.762-2.515,5.662-3.805c11.624,10.76,24.511,20.173,38.411,27.992C110.569,479.555,90.594,480.852,86.091,480.491z
			 M192.232,422.625c-14.859-6.732-28.585-15.535-40.821-26.031c40.798-30.47,86.045-70.145,130.544-114.645
			c42.666-42.666,80.898-86.02,110.833-125.48c10.441,12.299,19.176,26.085,25.833,40.999
			c-28.521,36.991-64.449,77.481-104.059,117.09C273.076,356.046,230.62,393.498,192.232,422.625z M262.511,437.755
			c-11.719,0-23.167-1.188-34.229-3.447c34.727-27.641,71.839-60.981,108.445-97.589c34.764-34.764,66.582-69.984,93.371-103.184
			c2.144,10.793,3.279,21.944,3.279,33.355C433.376,361.105,356.726,437.755,262.511,437.755z M442.768,164.402
			c-1.078,1.572-2.178,3.157-3.292,4.751c-7.748-13.974-17.098-26.941-27.809-38.646c2.552-3.679,5.029-7.316,7.4-10.894
			c2.552-3.85,4.964-7.593,7.258-11.244c32.815-19.756,49.125-22.85,54.17-22.284C480.853,90.626,479.558,110.74,442.768,164.402z"
			/>
	</g>
</g>
<g>
</g>
<g>
</g>
<g>
</g>
<g>
</g>
<g>
</g>
<g>
</g>
<g>
</g>
<g>
</g>
<g>
</g>
<g>
</g>
<g>
</g>
<g>
</g>
<g>
</g>
<g>
</g>
<g>
</g>
</svg>
