<?xml version="1.0" encoding="iso-8859-1"?>
<!-- Generator: Adobe Illustrator 18.0.0, SVG Export Plug-In . SVG Version: 6.00 Build 0)  -->
<!DOCTYPE svg PUBLIC "-//W3C//DTD SVG 1.1//EN" "http://www.w3.org/Graphics/SVG/1.1/DTD/svg11.dtd">
<svg version="1.1" id="Capa_1" xmlns="http://www.w3.org/2000/svg" fill="#fff" xmlns:xlink="http://www.w3.org/1999/xlink" x="0px" y="0px"
	 viewBox="0 0 109.704 109.704" style="enable-background:new 0 0 109.704 109.704;" xml:space="preserve">
<g>
	<path d="M109.649,53.08c-0.925-21.029-13.307-40.99-33.258-48.625C55.158-3.671,29.966-0.903,14.857,17.061
		c-3.981,4.255-7.159,9.21-9.542,14.582c-0.081,0.137-0.165,0.268-0.246,0.406c-0.022,0.037,0.017,0.066,0.051,0.061
		C2.556,38.03,0.933,44.434,0.274,50.957c-2.041,20.215,7.447,38.17,24.194,49.102c3.707,2.42,7.636,4.384,11.697,5.893
		c0.008,0.064,0.012,0.129,0.021,0.193c0.035,0.257,0.463,0.254,0.513,0.007c15.528,5.6,32.954,4.474,47.545-4.159
		C101.403,91.842,110.51,72.674,109.649,53.08z M23.981,16.434c-4.831,1.321-8.815,3.7-12.163,6.879
		c1.076-1.657,2.233-3.256,3.479-4.775C22.906,11.254,31.501,6.021,41.45,3.744C44.639,12.465,29.733,14.861,23.981,16.434z
		 M9.614,27.012c3.185-3.237,6.856-6.088,11.017-7.596c3.758-1.361,7.8-1.994,11.636-3.115c6.022-1.76,13.981-5.49,11.257-12.979
		c1.856-0.342,3.753-0.594,5.704-0.727c5.059-0.346,10.317,0.039,15.47,1.058c9.69,17.574-18.592,19.286-29.726,21.366
		C18.618,28.072,5.486,40.154,2.353,55.822C2.293,45.897,4.833,35.78,9.614,27.012z M2.597,60.675
		C4.58,50.102,9.152,40.767,18.413,34.233c7.826-5.523,16.632-6.828,25.765-8.348c6.919-1.149,15.306-2.408,20.893-7.043
		c4.983-4.136,4.518-9.652,1.792-14.723c5.542,1.298,10.909,3.326,15.703,5.99c1.541,0.856,3.003,1.811,4.404,2.835
		c1.703,4.466-2.718,10.507-5.066,13.864c-3.711,5.307-9.289,8.688-15.763,9.32c-5.443,0.533-10.988-0.342-16.466,0.053
		c-5.11,0.369-10.144,1.473-15,3.08C19.845,44.17,6.297,58.123,5.796,74.271c-0.773-1.945-1.427-3.949-1.935-6.011
		C3.25,65.781,2.838,63.243,2.597,60.675z M7.176,77.399c1.921-10.395,4.469-19.3,12.64-26.953
		c9.206-8.623,22.248-11.719,34.526-11.771c10.525-0.043,19.761,1.498,27.582-7.191c3.252-3.613,8.047-11.044,7.229-16.836
		c4.04,3.372,7.424,7.439,10.138,11.948c-0.014,0.046-0.026,0.093-0.026,0.146c-0.048,5.465,0.2,9.828-3.565,14.277
		c-3.293,3.891-8.29,6.246-12.959,8.002c-10.122,3.809-20.239,3.721-30.767,5c-9.396,1.145-18.39,4.85-24.421,12.357
		c-5.93,7.385-8.262,18.231-7.442,27.628C14.724,89.4,10.261,83.773,7.176,77.399z M20.758,94.543
		c1.531-11.176,2.655-22.157,11.579-30.205c9.168-8.269,21.483-7.48,32.885-8.596c9.346-0.914,18.93-3.316,26.923-8.387
		c5.332-3.382,10.228-9.775,9.582-16.227c2.005,4.204,3.482,8.689,4.424,13.282c-1.391,4.299-1.898,8.449-4.519,12.45
		c-2.446,3.736-6.133,6.533-10.019,8.619c-7.937,4.266-17.205,5.701-25.838,7.916c-7.618,1.953-15.347,4.418-21.406,9.631
		c-5.855,5.037-8.706,12.911-8.403,20.519C30.458,101.361,25.299,98.308,20.758,94.543z M65.225,106.569
		c1.902-2.996,4.264-5.141,7.975-6.132c3.101-0.828,6.164-0.023,9.189-0.176C77.113,103.307,71.293,105.463,65.225,106.569z
		 M84.382,99.055c-0.057-0.104-0.135-0.197-0.247-0.258c-3.412-1.844-8.79-1.125-12.366,0.004c-3.928,1.24-6.745,4.277-8.093,8.032
		c-2.125,0.322-4.277,0.519-6.443,0.577c-2.177,0.059-4.351-0.027-6.509-0.242c0.808-5.928,2.09-11.129,7.91-14.225
		c5.148-2.74,11.519-2.877,17.195-3.277c6.808-0.48,16.885,0.075,22.96-4.354C94.964,90.807,90.029,95.457,84.382,99.055z
		 M106.119,68.588c-0.888,4.075-2.309,7.913-4.16,11.48c-0.275-0.074-0.593-0.005-0.813,0.303c-3.215,4.49-9.773,5.43-14.865,6.008
		c-6.192,0.705-12.425,0.754-18.594,1.711c-10.215,1.586-19.637,7.883-17.677,18.997c-4.423-0.502-8.774-1.562-12.94-3.114
		c1.569-8.956,3.966-16.68,12.332-21.826c7.559-4.65,16.903-6.035,25.414-7.992c8.021-1.844,16.189-4.023,22.823-9.121
		c4.19-3.22,7.935-8.644,9.468-14.275C107.686,56.776,107.371,62.842,106.119,68.588z"/>
</g>
<g>
</g>
<g>
</g>
<g>
</g>
<g>
</g>
<g>
</g>
<g>
</g>
<g>
</g>
<g>
</g>
<g>
</g>
<g>
</g>
<g>
</g>
<g>
</g>
<g>
</g>
<g>
</g>
<g>
</g>
</svg>
