<?xml version="1.0" encoding="iso-8859-1"?>
<!-- Generator: Adobe Illustrator 19.0.0, SVG Export Plug-In . SVG Version: 6.00 Build 0)  -->
<svg version="1.1" id="Capa_1" xmlns="http://www.w3.org/2000/svg" fill="#fff" xmlns:xlink="http://www.w3.org/1999/xlink" x="0px" y="0px"
	 viewBox="0 0 51.199 51.199" style="enable-background:new 0 0 51.199 51.199;" xml:space="preserve">
<g>
	<path d="M11.79,38.216l-2.783-5.64l-2.783,5.64L0,39.12l4.503,4.39l-1.063,6.199l5.567-2.927l5.566,2.927l-1.063-6.198l4.505-4.391
		L11.79,38.216z M11.917,46.053l-2.91-1.53l-2.911,1.53l0.556-3.24l-2.354-2.296l3.255-0.473l1.455-2.948l1.455,2.948l3.254,0.473
		l-2.354,2.295L11.917,46.053z"/>
	<path d="M10.006,30.047c0.299,0,0.594-0.133,0.79-0.387l1.228-1.579c0.34-0.436,0.261-1.063-0.176-1.402
		c-0.435-0.342-1.064-0.26-1.402,0.176l-1.228,1.579c-0.34,0.436-0.261,1.063,0.176,1.402C9.575,29.979,9.792,30.047,10.006,30.047z
		"/>
	<path d="M13.689,25.311c0.298,0,0.593-0.133,0.79-0.386l1.228-1.578c0.34-0.437,0.261-1.064-0.175-1.403
		c-0.437-0.34-1.063-0.259-1.403,0.175l-1.228,1.578c-0.339,0.437-0.261,1.064,0.175,1.403
		C13.259,25.242,13.476,25.311,13.689,25.311z"/>
	<path d="M24.74,11.103c0.298,0,0.593-0.133,0.79-0.386l1.229-1.579c0.339-0.437,0.261-1.064-0.175-1.403
		c-0.437-0.34-1.063-0.259-1.403,0.175l-1.229,1.579c-0.339,0.437-0.261,1.064,0.175,1.403C24.31,11.034,24.526,11.103,24.74,11.103
		z"/>
	<path d="M17.373,20.574c0.298,0,0.593-0.133,0.79-0.386l1.228-1.578c0.339-0.437,0.261-1.064-0.175-1.403
		c-0.437-0.34-1.064-0.259-1.403,0.175l-1.228,1.578c-0.339,0.437-0.261,1.064,0.175,1.403
		C16.942,20.506,17.159,20.574,17.373,20.574z"/>
	<path d="M28.424,6.366c0.298,0,0.593-0.133,0.79-0.386l1.229-1.578c0.339-0.436,0.261-1.064-0.175-1.403
		c-0.437-0.341-1.064-0.261-1.403,0.175l-1.229,1.578c-0.339,0.436-0.261,1.064,0.175,1.403C27.993,6.298,28.209,6.366,28.424,6.366
		z"/>
	<path d="M21.057,15.839c0.298,0,0.593-0.133,0.79-0.386l1.229-1.579c0.339-0.437,0.261-1.064-0.175-1.403
		c-0.437-0.34-1.063-0.259-1.403,0.175l-1.229,1.579c-0.339,0.437-0.261,1.064,0.175,1.403
		C20.626,15.771,20.843,15.839,21.057,15.839z"/>
	<path d="M26.512,33.157l-1.536,1.28c-0.424,0.354-0.481,0.984-0.128,1.409c0.198,0.237,0.482,0.359,0.77,0.359
		c0.226,0,0.452-0.076,0.64-0.231l1.536-1.28c0.424-0.354,0.481-0.984,0.128-1.409C27.566,32.862,26.938,32.804,26.512,33.157z"/>
	<path d="M21.902,36.998l-1.536,1.28c-0.424,0.354-0.481,0.984-0.128,1.409c0.198,0.237,0.482,0.359,0.77,0.359
		c0.226,0,0.452-0.076,0.64-0.231l1.536-1.28c0.424-0.354,0.481-0.984,0.128-1.409C22.957,36.702,22.328,36.646,21.902,36.998z"/>
	<path d="M44.949,17.793l-1.536,1.281c-0.424,0.354-0.481,0.984-0.127,1.408c0.197,0.237,0.481,0.359,0.769,0.359
		c0.226,0,0.452-0.076,0.64-0.232l1.536-1.281c0.424-0.354,0.481-0.984,0.127-1.408C46.005,17.496,45.375,17.438,44.949,17.793z"/>
	<path d="M40.34,21.634l-1.536,1.28c-0.424,0.354-0.481,0.984-0.128,1.409c0.198,0.237,0.482,0.359,0.77,0.359
		c0.226,0,0.452-0.076,0.64-0.231l1.536-1.28c0.424-0.354,0.481-0.984,0.128-1.409C41.396,21.338,40.766,21.28,40.34,21.634z"/>
	<path d="M35.73,25.475l-1.536,1.28c-0.424,0.354-0.481,0.984-0.128,1.409c0.198,0.237,0.482,0.359,0.77,0.359
		c0.226,0,0.452-0.076,0.64-0.231l1.536-1.28c0.424-0.354,0.481-0.984,0.128-1.409C36.786,25.179,36.157,25.122,35.73,25.475z"/>
	<path d="M31.121,29.316l-1.536,1.28c-0.424,0.354-0.481,0.984-0.128,1.409c0.198,0.237,0.482,0.359,0.77,0.359
		c0.226,0,0.452-0.076,0.64-0.231l1.536-1.28c0.424-0.354,0.481-0.984,0.128-1.409C32.177,29.02,31.547,28.963,31.121,29.316z"/>
	<path d="M50.968,14.079c-0.354-0.424-0.982-0.48-1.409-0.128l-1.536,1.28c-0.424,0.354-0.481,0.984-0.128,1.409
		C48.093,16.878,48.377,17,48.664,17c0.226,0,0.452-0.076,0.64-0.231l1.536-1.28C51.264,15.135,51.321,14.504,50.968,14.079z"/>
	<path d="M43.999,4.643l1.346-1.48c0.371-0.409,0.341-1.041-0.067-1.413c-0.407-0.369-1.041-0.341-1.413,0.067l-1.346,1.48
		c-0.371,0.409-0.341,1.041,0.067,1.413c0.191,0.174,0.433,0.26,0.673,0.26C43.53,4.97,43.802,4.86,43.999,4.643z"/>
	<path d="M14.267,34.374c-0.371,0.408-0.341,1.041,0.067,1.413c0.191,0.174,0.433,0.26,0.673,0.26c0.271,0,0.542-0.11,0.74-0.327
		l1.346-1.479c0.371-0.408,0.341-1.041-0.067-1.413c-0.407-0.37-1.038-0.341-1.413,0.067L14.267,34.374z"/>
	<path d="M21.062,28.387c-0.407-0.37-1.041-0.341-1.413,0.067l-1.346,1.48c-0.371,0.409-0.341,1.041,0.067,1.413
		c0.191,0.174,0.433,0.26,0.673,0.26c0.271,0,0.543-0.11,0.74-0.327l1.346-1.48C21.5,29.391,21.47,28.759,21.062,28.387z"/>
	<path d="M39.223,9.409c0.271,0,0.543-0.11,0.74-0.327l1.346-1.48c0.371-0.409,0.341-1.041-0.067-1.413
		c-0.407-0.37-1.041-0.342-1.413,0.067l-1.346,1.48c-0.371,0.409-0.341,1.041,0.067,1.413C38.741,9.323,38.982,9.409,39.223,9.409z"
		/>
	<path d="M25.096,23.947c-0.407-0.369-1.04-0.342-1.412,0.068l-1.345,1.48c-0.371,0.408-0.341,1.041,0.068,1.412
		c0.191,0.174,0.432,0.26,0.672,0.26c0.271,0,0.543-0.11,0.74-0.328l1.345-1.48C25.535,24.951,25.505,24.319,25.096,23.947z"/>
	<path d="M29.133,19.508c-0.406-0.37-1.041-0.341-1.413,0.067l-1.345,1.479c-0.371,0.409-0.341,1.041,0.067,1.413
		c0.191,0.174,0.433,0.26,0.673,0.26c0.271,0,0.543-0.11,0.74-0.327l1.345-1.479C29.571,20.512,29.541,19.88,29.133,19.508z"/>
	<path d="M31.756,15.136l-1.345,1.479c-0.371,0.409-0.341,1.041,0.067,1.413c0.191,0.174,0.433,0.26,0.673,0.26
		c0.271,0,0.543-0.11,0.74-0.327l1.345-1.479c0.371-0.409,0.341-1.041-0.067-1.413C32.762,14.699,32.128,14.728,31.756,15.136z"/>
	<path d="M35.792,10.696l-1.345,1.479c-0.371,0.409-0.341,1.041,0.067,1.413c0.191,0.174,0.433,0.26,0.673,0.26
		c0.271,0,0.543-0.11,0.74-0.327l1.345-1.479c0.371-0.409,0.341-1.041-0.067-1.413C36.798,10.259,36.165,10.289,35.792,10.696z"/>
</g>
<g>
</g>
<g>
</g>
<g>
</g>
<g>
</g>
<g>
</g>
<g>
</g>
<g>
</g>
<g>
</g>
<g>
</g>
<g>
</g>
<g>
</g>
<g>
</g>
<g>
</g>
<g>
</g>
<g>
</g>
</svg>
